<svg xmlns="http://www.w3.org/2000/svg" width="394.667" height="274.667" version="1.0" viewBox="0 0 296 206">
  <path
    d="M27.2 5.3C24 9.1 23.3 32 26 43.5c.8 3.5.6 4.5-2 8.5C11 72.3 4.1 96.1 5.3 115.7c1.9 27.9 17.1 46.1 43 51 22.8 4.3 48.2-3.1 65.2-18.9 7.9-7.4 15-17.1 19.4-26.6 1.4-2.8 2.1-5.5 1.6-5.9-.4-.5-1-.3-1.2.4-1.6 4.5-13 20.5-18.5 26.1-28 28.4-77 28.1-91.6-.5-4.2-8.2-5.4-15.8-4.9-31.3.3-12 .9-16 3.1-23.5C24.2 77.3 30.5 63 31.8 63c.4 0 1.6 1.7 2.7 3.7 1.1 2.1 5 6.8 8.6 10.4 17 17.2 46.5 22.3 71.1 12.4 7.6-3.1 18.2-10.7 23-16.6 14.2-17.3 13.7-38.3-1.4-52.5-6.1-5.8-10.7-8.4-19.3-11-7.9-2.4-25.3-2.4-35 .1-15.5 3.8-33.8 14.7-45.4 27-2.9 3.1-5.5 5.4-5.8 5.2-1.4-1.4-2.4-15.7-1.8-26 .3-6.4.4-11.7.2-11.7-.3 0-.9.6-1.5 1.3zm89 10.7c11.1 3.5 20.1 12.2 22.8 22 2.5 8.8.1 20.5-6.1 30.2-13.6 21.1-46.8 28.7-72.7 16.6-7.7-3.6-18.4-14-22.7-22l-2.9-5.6 3.7-5.6c10.3-15.6 28.4-29.8 44.5-35 12-4 22.1-4.1 33.4-.6z"
    fill="#0876ff" />
  <path
    d="M262.7 5.1c-6.5 1.5-12 5-18.2 11.4-10 10.3-16.1 22.7-28 57l-5.3 15-5.5.3c-10.5.6-23-4.4-28.2-11.2-6.1-8-7-19.2-2.4-29.1 3.5-7.5 14.1-17.7 21.2-20.3 3.2-1.2 6.9-2.2 8.2-2.2 2.7 0 3.4-1.5 1-2.3-2.7-1.1-14 1.4-20.3 4.4-7.7 3.7-16 11.7-19.2 18.4-3.6 7.3-4 18.4-1 25.3 2.6 6 9.2 12.5 15.6 15.3 5.6 2.5 16.5 4.9 22.6 4.9 2.6 0 4.9.4 5.2.9.7 1.1-3.2 10.8-9 22.4-4.3 8.4-4.7 8.9-7.2 8.3-1.5-.3-8.8-.9-16.2-1.2-21-1-33.4 1.7-43.5 9.4-15.4 11.7-12.2 29.2 6.1 33.3 16.2 3.6 37.5-6.3 52.2-24.4l5.2-6.5 7.8 1.5c32.5 6 57.5 20.2 66.2 37.6 5 10 3.9 19.2-2.9 25-3.4 2.8-3.1 4 .8 3.1 6.9-1.7 11.7-10.6 10.9-20.2-.8-8.4-4.8-15.4-13.7-24.2-12-11.9-31.8-22.8-52-28.6-4.7-1.3-9.2-2.6-9.9-2.9-.9-.3-.4-1.9 1.8-5.7 1.7-2.9 5.6-10.4 8.5-16.6 4.7-9.9 5.7-11.2 7.9-11.2 4.3 0 17.8-4.8 24.5-8.7 9-5.3 24.1-20 30.5-29.7 20.9-31.5 14.2-55.1-13.7-48.5zm13.6 8c2.8 1.3 5.7 6.7 5.7 10.7 0 3.4-2.1 11.1-4.9 18.1-5.3 13.2-19.2 29.7-32.1 38-6.1 4-22.4 10-23.7 8.8-.7-.7 8.4-21.8 16.8-39.2 9.9-20.3 17.7-30.7 26.1-34.9 5.7-2.8 8.4-3.2 12.1-1.5zm-93.5 119.5c3.5.5 5.2 1.1 5.2 2.1 0 .8-4.4 5.8-9.7 11.2-11.7 11.7-19.1 15.9-30.1 16.8-18.2 1.5-28.1-9.8-17.4-20 8.2-7.9 31.9-12.5 52-10.1z"
    fill="#0876ff" />
</svg>