<svg aria-hidden="true" style="position:absolute;width:0;height:0;overflow:hidden" xmlns="http://www.w3.org/2000/svg">
  <defs>

    <symbol id="icon-facebook" viewBox="0 0 512 512">
      <circle cx="250" cy="250" fill="#e2ab3f" r="250" />
      <path
        d="M205.1 160.9v40.4h-29.6v49.4h29.9V400h60.8V250.5h40.8s3.8-23.7 5.7-49.6h-46.2v-33.8c0-5 6.6-11.8 13.2-11.8h33.1v-51.4h-45c-63.9.1-62.4 49.5-62.4 56.9z"
        fill="#FFF" />
    </symbol>

    <symbol id="icon-handset" viewBox="0 0 32 32">
      <path
        d="M25.29 19.823c-.655-.682-1.445-1.047-2.283-1.047-.831 0-1.628.358-2.31 1.04l-2.134 2.127c-.176-.095-.351-.182-.52-.27-.243-.122-.473-.236-.669-.358-1.999-1.27-3.816-2.924-5.558-5.065-.844-1.067-1.412-1.965-1.824-2.877.554-.507 1.067-1.033 1.567-1.54.189-.189.378-.385.567-.574 1.418-1.418 1.418-3.255 0-4.674l-1.844-1.844a29.275 29.275 0 0 1-.628-.642 31.411 31.411 0 0 0-1.27-1.256c-.655-.648-1.439-.993-2.263-.993s-1.621.344-2.296.993l-.014.014-2.296 2.317A4.937 4.937 0 0 0 .049 8.315c-.162 1.972.419 3.809.865 5.011 1.094 2.951 2.729 5.687 5.167 8.618 2.958 3.532 6.517 6.322 10.583 8.287 1.553.736 3.627 1.607 5.943 1.756.142.007.29.014.425.014 1.56 0 2.87-.561 3.897-1.675.007-.013.02-.02.027-.034.351-.425.756-.81 1.182-1.223.29-.277.588-.567.878-.871.669-.696 1.02-1.506 1.02-2.337 0-.837-.358-1.641-1.04-2.317l-3.708-3.721zm2.418 7.112c-.007 0-.007.007 0 0-.263.284-.534.54-.824.824-.439.419-.885.858-1.303 1.351-.682.73-1.486 1.074-2.539 1.074-.101 0-.209 0-.311-.007-2.006-.128-3.87-.912-5.268-1.58-3.823-1.851-7.179-4.478-9.969-7.807-2.303-2.776-3.843-5.342-4.863-8.098-.628-1.682-.858-2.992-.756-4.228.068-.79.371-1.445.932-2.006L5.11 4.155c.331-.311.682-.48 1.027-.48.425 0 .77.257.986.473l.02.02c.412.385.804.783 1.216 1.209.209.216.425.432.642.655l1.844 1.844c.716.716.716 1.378 0 2.094-.196.196-.385.392-.581.581a35.386 35.386 0 0 1-1.695 1.648c-.014.014-.027.02-.034.034-.581.581-.473 1.148-.351 1.533l.02.061c.48 1.162 1.155 2.256 2.181 3.559l.007.007c1.864 2.296 3.829 4.086 5.997 5.457.277.176.561.317.831.453.243.122.473.236.669.358.027.013.054.034.081.047.23.115.446.169.669.169.561 0 .912-.351 1.027-.466l2.31-2.31c.23-.23.594-.506 1.02-.506.419 0 .763.263.973.493a.166.166 0 0 0 .014.013l3.721 3.721c.696.689.696 1.398.007 2.114zM17.293 7.612c1.77.297 3.377 1.135 4.66 2.418s2.114 2.891 2.418 4.66a.905.905 0 0 0 .898.756c.054 0 .101-.007.155-.014a.913.913 0 0 0 .75-1.054c-.365-2.141-1.378-4.093-2.924-5.639s-3.498-2.56-5.639-2.924c-.5-.081-.966.25-1.054.743s.236.973.736 1.054zM31.963 14.116c-.601-3.526-2.262-6.734-4.815-9.287S21.387.615 17.861.014a.909.909 0 0 0-1.047.743c-.081.5.25.966.75 1.054 3.147.534 6.018 2.026 8.3 4.302a15.296 15.296 0 0 1 4.302 8.3.905.905 0 0 0 .898.756c.054 0 .101-.007.155-.014a.895.895 0 0 0 .743-1.04z" />
    </symbol>
    <symbol id="icon-instagram" viewBox="0 0 32 32">
      <path fill="#e2ab3f" style="fill:var(--color3, #e2ab3f)"
        d="M19.063 16a3.063 3.063 0 1 1-6.126 0 3.063 3.063 0 0 1 6.126 0z" />
      <path fill="#e2ab3f" style="fill:var(--color3, #e2ab3f)"
        d="M23.162 10.582a2.84 2.84 0 0 0-.687-1.056 2.84 2.84 0 0 0-1.056-.687c-.324-.126-.81-.275-1.706-.316-.969-.044-1.26-.054-3.713-.054s-2.744.009-3.713.053c-.896.041-1.382.191-1.706.316a2.84 2.84 0 0 0-1.056.687c-.305.296-.54.657-.688 1.056-.126.324-.275.81-.316 1.706-.044.969-.054 1.259-.054 3.713s.009 2.744.054 3.713c.041.896.19 1.382.316 1.706.147.399.382.76.687 1.056.296.305.657.54 1.056.687.324.126.81.276 1.706.316.969.044 1.259.054 3.712.054s2.744-.009 3.713-.054c.896-.041 1.382-.19 1.706-.316a3.042 3.042 0 0 0 1.744-1.744c.126-.324.275-.81.316-1.706.044-.969.054-1.26.054-3.713s-.009-2.744-.054-3.713c-.041-.896-.19-1.382-.316-1.706zM16 20.718a4.718 4.718 0 1 1 0-9.435 4.718 4.718 0 0 1 0 9.435zm4.904-8.52a1.102 1.102 0 1 1 0-2.205 1.102 1.102 0 0 1 0 2.205z" />
      <path fill="#e2ab3f" style="fill:var(--color3, #e2ab3f)"
        d="M16 0C7.165 0 0 7.165 0 16s7.165 16 16 16 16-7.165 16-16S24.835 0 16 0zm9.132 19.788c-.044.978-.2 1.646-.427 2.23a4.697 4.697 0 0 1-2.687 2.687c-.584.227-1.252.382-2.23.427-.98.045-1.293.055-3.788.055s-2.808-.011-3.788-.055c-.978-.045-1.646-.2-2.23-.427a4.5 4.5 0 0 1-1.627-1.06 4.513 4.513 0 0 1-1.06-1.627c-.227-.584-.383-1.252-.427-2.23-.045-.98-.056-1.293-.056-3.788s.011-2.808.055-3.788c.044-.978.2-1.646.427-2.23a4.513 4.513 0 0 1 1.06-1.627 4.5 4.5 0 0 1 1.627-1.06c.584-.227 1.252-.382 2.23-.427.98-.045 1.293-.055 3.788-.055s2.808.011 3.788.056c.978.044 1.646.2 2.23.427a4.517 4.517 0 0 1 1.628 1.06 4.513 4.513 0 0 1 1.06 1.627c.227.584.383 1.252.427 2.23.045.98.055 1.293.055 3.788s-.011 2.808-.055 3.788z" />
    </symbol>
    <symbol id="icon-mail" viewBox="0 0 40 32">
      <path fill="#e2ab3f" style="fill:var(--color3, #e2ab3f)"
        d="M35.117.78H4.891A4.895 4.895 0 0 0 0 5.671v20.658a4.895 4.895 0 0 0 4.891 4.891h30.217a4.895 4.895 0 0 0 4.891-4.891V5.679a4.89 4.89 0 0 0-4.883-4.9zm2.657 25.549a2.66 2.66 0 0 1-2.657 2.657H4.891a2.66 2.66 0 0 1-2.657-2.657V5.679a2.66 2.66 0 0 1 2.657-2.657h30.217a2.66 2.66 0 0 1 2.657 2.657v20.65h.008z" />
      <path fill="#e2ab3f" style="fill:var(--color3, #e2ab3f)"
        d="m25.227 15.744 9.783-8.773a1.123 1.123 0 0 0 .083-1.581 1.123 1.123 0 0 0-1.581-.083L20.021 17.415l-2.632-2.351c-.008-.008-.017-.017-.017-.025a1.602 1.602 0 0 0-.182-.157L6.48 5.298c-.463-.414-1.167-.372-1.581.091s-.372 1.167.091 1.581l9.899 8.848-9.857 9.228a1.122 1.122 0 0 0 1.53 1.639l10.006-9.361 2.715 2.425a1.118 1.118 0 0 0 1.49-.009l2.789-2.499 9.948 9.452c.215.207.497.306.77.306.298 0 .588-.116.811-.348a1.123 1.123 0 0 0-.041-1.581l-9.824-9.328z" />
    </symbol>
    <symbol id="icon-youtube" viewBox="0 0 32 32">
      <path fill="#e2ab3f" style="fill:var(--color3, #e2ab3f)" d="M14.007 18.998 19.212 16l-5.205-2.998v5.995z" />
      <path fill="#e2ab3f" style="fill:var(--color3, #e2ab3f)"
        d="M16 0C7.165 0 0 7.165 0 16s7.165 16 16 16 16-7.165 16-16S24.835 0 16 0zm9.998 16.016s0 3.245-.412 4.81a2.506 2.506 0 0 1-1.762 1.762C22.259 23 16.001 23 16.001 23s-6.242 0-7.823-.428a2.504 2.504 0 0 1-1.762-1.762c-.412-1.548-.412-4.809-.412-4.809s0-3.245.412-4.809a2.555 2.555 0 0 1 1.762-1.779c1.565-.412 7.823-.412 7.823-.412s6.259 0 7.823.428c.856.23 1.532.906 1.762 1.762.428 1.565.412 4.826.412 4.826z" />
    </symbol>
    <symbol id="icon-close" viewBox="0 0 32 32">
      <path stroke-width="2.133" d="m8.533 8.533 14.933 14.933m-14.933.001L23.466 8.534" />
    </symbol>
  </defs>
</svg>